<svg width="277" height="36" viewBox="0 0 277 36" fill="none" xmlns="http://www.w3.org/2000/svg">
<path d="M24.7812 1.26562C24.4531 2.01563 24.1602 2.67188 23.9023 3.23438C23.6445 3.79688 23.4219 4.27734 23.2344 4.67578C23.0234 5.12109 22.8477 5.51953 22.707 5.87109C22.5898 6.12891 22.4375 6.48047 22.25 6.92578C22.0625 7.32422 21.8281 7.85156 21.5469 8.50781C21.2891 9.14062 20.9492 9.96094 20.5273 10.9688C20.3164 10.1016 20.0586 9.33984 19.7539 8.68359C19.4492 8.02734 19.1211 7.45312 18.7695 6.96094C18.418 6.46875 18.043 6.07031 17.6445 5.76562C17.2695 5.4375 16.8945 5.16797 16.5195 4.95703C15.6523 4.48828 14.7383 4.23047 13.7773 4.18359C12.5117 4.25391 11.5156 4.46484 10.7891 4.81641C10.0859 5.14453 9.57031 5.53125 9.24219 5.97656C8.91406 6.39844 8.73828 6.84375 8.71484 7.3125C8.69141 7.75781 8.75 8.13281 8.89062 8.4375C9.00781 8.71875 9.41797 9.04688 10.1211 9.42188C10.8477 9.79688 11.7148 10.2305 12.7227 10.7227C13.7539 11.1914 14.8555 11.7305 16.0273 12.3398C17.1992 12.9258 18.2773 13.582 19.2617 14.3086C20.2695 15.0117 21.1133 15.7852 21.793 16.6289C22.4961 17.4492 22.8828 18.3281 22.9531 19.2656C23.0234 20.4609 23.0117 21.5391 22.918 22.5C22.8242 23.4609 22.4961 24.2812 21.9336 24.9609C21.3711 25.6406 20.4922 26.1797 19.2969 26.5781C18.125 26.9766 16.4961 27.2227 14.4102 27.3164C12.2539 27.4102 10.4844 27.293 9.10156 26.9648C7.71875 26.6367 6.59375 26.1914 5.72656 25.6289C4.88281 25.0664 4.25 24.4453 3.82812 23.7656C3.42969 23.0859 3.13672 22.4414 2.94922 21.832C2.76172 21.1992 2.63281 20.6602 2.5625 20.2148C2.49219 19.7461 2.375 19.4648 2.21094 19.3711C2.02344 19.2539 1.83594 19.1484 1.64844 19.0547C1.48438 18.9609 1.30859 18.8789 1.12109 18.8086C0.933594 18.7148 0.746094 18.6328 0.558594 18.5625L10.7891 16.9102C10.2031 17.3789 9.74609 17.8125 9.41797 18.2109C9.11328 18.6094 8.87891 18.9609 8.71484 19.2656C8.52734 19.6172 8.39844 19.9453 8.32812 20.25C8.28125 20.5781 8.38672 20.9883 8.64453 21.4805C8.90234 21.9727 9.25391 22.4531 9.69922 22.9219C10.168 23.3672 10.707 23.7422 11.3164 24.0469C11.9258 24.3516 12.5586 24.4805 13.2148 24.4336C14.0352 24.3633 14.7031 24.1641 15.2188 23.8359C15.7344 23.4844 16.1211 23.0508 16.3789 22.5352C16.6602 22.0195 16.8242 21.457 16.8711 20.8477C16.918 20.2383 16.8594 19.6406 16.6953 19.0547C16.5547 18.4453 16.3203 17.8828 15.9922 17.3672C15.6641 16.8281 15.2773 16.3828 14.832 16.0312C14.4336 15.75 13.8125 15.4805 12.9688 15.2227C12.1484 14.9648 11.2227 14.6836 10.1914 14.3789C9.18359 14.0742 8.14062 13.7227 7.0625 13.3242C6.00781 12.9258 5.04688 12.4336 4.17969 11.8477C3.33594 11.2617 2.65625 10.5703 2.14062 9.77344C1.64844 8.97656 1.46094 8.01562 1.57812 6.89062C1.67188 5.92969 1.97656 5.13281 2.49219 4.5C3.03125 3.84375 3.69922 3.32812 4.49609 2.95312C5.31641 2.55469 6.21875 2.26172 7.20312 2.07422C8.21094 1.88672 9.23047 1.78125 10.2617 1.75781C11.3164 1.71094 12.3477 1.72266 13.3555 1.79297C14.3867 1.86328 15.3125 1.94531 16.1328 2.03906C16.9531 2.13281 17.6445 2.22656 18.207 2.32031C18.793 2.39062 19.1562 2.4375 19.2969 2.46094C19.9062 2.50781 20.5156 2.49609 21.125 2.42578C21.6641 2.37891 22.25 2.27344 22.8828 2.10938C23.5391 1.92187 24.1719 1.64062 24.7812 1.26562ZM25.1328 11.2852L31.6016 11.3555C31.2266 12.7852 30.9453 14.0039 30.7578 15.0117C30.5938 16.0195 30.4883 16.8633 30.4414 17.543C30.3477 18.3164 30.3242 18.9727 30.3711 19.5117C30.4414 20.0039 30.5586 20.5312 30.7227 21.0938C30.8633 21.5625 31.0742 22.1016 31.3555 22.7109C31.6367 23.3203 32.0117 23.9297 32.4805 24.5391C32.1992 24.4453 31.8945 24.375 31.5664 24.3281C31.2383 24.2812 30.9336 24.2461 30.6523 24.2227C30.3242 24.1992 29.9961 24.1992 29.668 24.2227C29.3398 24.2461 28.9766 24.2812 28.5781 24.3281C28.25 24.375 27.8516 24.4336 27.3828 24.5039C26.9141 24.5742 26.4219 24.668 25.9062 24.7852C26.2578 23.7305 26.5273 22.8164 26.7148 22.043C26.9258 21.2695 27.0781 20.625 27.1719 20.1094C27.2656 19.5 27.3242 19.0078 27.3477 18.6328C27.3477 18.1641 27.3477 17.6367 27.3477 17.0508C27.3477 16.4414 27.3477 15.8555 27.3477 15.293C27.3477 14.7305 27.3359 14.2383 27.3125 13.8164C27.2891 13.3711 27.2422 13.0898 27.1719 12.9727L26.8203 12.6211C26.6797 12.5039 26.4688 12.3398 26.1875 12.1289C25.9297 11.8945 25.5781 11.6133 25.1328 11.2852ZM27.6289 5.87109C28.1211 5.61328 28.6133 5.54297 29.1055 5.66016C29.6211 5.77734 30.0195 6 30.3008 6.32812C30.582 6.65625 30.6758 7.04297 30.582 7.48828C30.5117 7.93359 30.1367 8.36719 29.457 8.78906C28.7773 9.1875 28.1797 9.32812 27.6641 9.21094C27.1484 9.09375 26.7852 8.84766 26.5742 8.47266C26.3633 8.09766 26.3281 7.66406 26.4688 7.17188C26.6094 6.65625 26.9961 6.22266 27.6289 5.87109ZM33.5703 10.3359C34.1094 10.2891 34.5664 10.2422 34.9414 10.1953C35.3398 10.1484 35.668 10.1016 35.9258 10.0547C36.2305 10.0078 36.4883 9.96094 36.6992 9.91406C36.9102 9.89062 37.1445 9.84375 37.4023 9.77344C37.6367 9.72656 37.8945 9.66797 38.1758 9.59766C38.4805 9.50391 38.8086 9.39844 39.1602 9.28125L38.9492 13.7461C39.4648 12.9258 40.0625 12.3047 40.7422 11.8828C41.4219 11.4375 42.0664 11.1094 42.6758 10.8984C43.4023 10.6406 44.1289 10.4883 44.8555 10.4414C45.6055 10.4648 46.2969 10.582 46.9297 10.793C47.4688 10.9805 48.0078 11.2734 48.5469 11.6719C49.1094 12.0703 49.543 12.6562 49.8477 13.4297C50.6445 12.6094 51.4297 11.9766 52.2031 11.5312C53 11.0625 53.7031 10.7109 54.3125 10.4766C55.0391 10.2188 55.7188 10.0664 56.3516 10.0195C57.1953 9.99609 57.9688 10.1367 58.6719 10.4414C59.3984 10.7461 60.0312 11.1328 60.5703 11.6016C61.1094 12.0469 61.543 12.5273 61.8711 13.043C62.1992 13.5352 62.3867 13.9688 62.4336 14.3438C62.5039 14.8594 62.4688 15.5273 62.3281 16.3477C62.1875 17.1445 62.0234 17.9648 61.8359 18.8086C61.6484 19.6289 61.4727 20.3906 61.3086 21.0938C61.168 21.7734 61.1094 22.2539 61.1328 22.5352C61.2031 22.7695 61.3672 23.0508 61.625 23.3789C61.8594 23.6602 62.1992 24.0117 62.6445 24.4336C63.1133 24.832 63.7812 25.3008 64.6484 25.8398C63.8984 25.8164 63.2305 25.793 62.6445 25.7695C62.082 25.7461 61.6016 25.7109 61.2031 25.6641C60.7344 25.6172 60.3242 25.582 59.9727 25.5586C59.6914 25.5586 59.3516 25.5352 58.9531 25.4883C58.625 25.4648 58.1914 25.4297 57.6523 25.3828C57.1367 25.3359 56.5391 25.2891 55.8594 25.2422C56.1172 25.1719 56.3281 25.043 56.4922 24.8555C56.6562 24.6445 56.7969 24.4453 56.9141 24.2578C57.0312 24.0234 57.125 23.7656 57.1953 23.4844C57.2422 23.25 57.2891 22.875 57.3359 22.3594C57.3828 21.8438 57.418 21.2578 57.4414 20.6016C57.4883 19.9453 57.5117 19.2539 57.5117 18.5273C57.5352 17.8008 57.5352 17.1094 57.5117 16.4531C57.4883 15.7969 57.4414 15.1992 57.3711 14.6602C57.3008 14.1211 57.207 13.7109 57.0898 13.4297C56.9961 13.2188 56.832 13.0547 56.5977 12.9375C56.3633 12.7969 56.0938 12.7148 55.7891 12.6914C55.4844 12.6445 55.1797 12.6562 54.875 12.7266C54.5703 12.7734 54.3008 12.8672 54.0664 13.0078C53.8555 13.1719 53.5742 13.3945 53.2227 13.6758C52.918 13.9336 52.5195 14.2852 52.0273 14.7305C51.5352 15.1758 50.9141 15.7383 50.1641 16.418C50.0938 17.8945 50.0352 19.0898 49.9883 20.0039C49.9648 20.8945 49.9414 21.5742 49.918 22.043C49.8945 22.6055 49.8828 22.9922 49.8828 23.2031C49.8594 23.3906 49.8711 23.5664 49.918 23.7305C49.9648 24.082 50.1055 24.4102 50.3398 24.7148C50.0586 24.6445 49.7539 24.5977 49.4258 24.5742C49.1211 24.5508 48.8398 24.5273 48.582 24.5039C48.2773 24.4805 47.9727 24.4688 47.668 24.4688C47.4102 24.4688 47.1289 24.4805 46.8242 24.5039C46.5664 24.5273 46.25 24.5625 45.875 24.6094C45.5 24.6328 45.0898 24.668 44.6445 24.7148C44.832 24.5977 44.9844 24.457 45.1016 24.293C45.2188 24.1289 45.3125 23.9766 45.3828 23.8359C45.4766 23.6719 45.5469 23.5195 45.5938 23.3789C45.6172 23.2383 45.6641 22.8984 45.7344 22.3594C45.8047 21.7969 45.8516 21.1406 45.875 20.3906C45.8984 19.6406 45.8984 18.8555 45.875 18.0352C45.8516 17.1914 45.7695 16.4297 45.6289 15.75C45.4883 15.0469 45.2656 14.4727 44.9609 14.0273C44.6797 13.582 44.3047 13.3828 43.8359 13.4297C43.2734 13.4766 42.6992 13.6172 42.1133 13.8516C41.6211 14.0391 41.0938 14.3203 40.5312 14.6953C39.9688 15.0703 39.4414 15.5742 38.9492 16.207C38.8555 17.9648 38.7969 19.3594 38.7734 20.3906C38.7734 21.4219 38.7852 22.207 38.8086 22.7461C38.832 23.3789 38.8555 23.8125 38.8789 24.0469C38.9023 24.2109 38.9609 24.375 39.0547 24.5391C39.125 24.6797 39.207 24.8438 39.3008 25.0312C39.418 25.2188 39.5469 25.3945 39.6875 25.5586L34.0977 25.2773C34.2852 25.1836 34.4492 25.0664 34.5898 24.9258C34.7305 24.7617 34.8477 24.5977 34.9414 24.4336C35.0352 24.2461 35.1289 24.0586 35.2227 23.8711C35.293 23.707 35.3516 23.3203 35.3984 22.7109C35.4688 22.1016 35.5273 21.3867 35.5742 20.5664C35.6211 19.7227 35.6562 18.8438 35.6797 17.9297C35.7266 16.9922 35.75 16.125 35.75 15.3281C35.7734 14.5078 35.7852 13.8164 35.7852 13.2539C35.7852 12.668 35.7734 12.3164 35.75 12.1992C35.6797 11.9648 35.5508 11.7188 35.3633 11.4609C35.1992 11.2734 34.9766 11.0742 34.6953 10.8633C34.4141 10.6289 34.0391 10.4531 33.5703 10.3359ZM63.7695 10.6172C64.5195 10.5 65.1289 10.4062 65.5977 10.3359C66.0898 10.2422 66.4883 10.1719 66.793 10.125C67.1445 10.0547 67.4141 9.99609 67.6016 9.94922C67.7891 9.90234 68.0586 9.83203 68.4102 9.73828C68.7148 9.64453 69.1133 9.53906 69.6055 9.42188C70.0977 9.28125 70.7188 9.09375 71.4688 8.85938C71.2812 9.09375 71.1289 9.30469 71.0117 9.49219C70.918 9.65625 70.8242 9.79688 70.7305 9.91406C70.6367 10.0547 70.5547 10.1836 70.4844 10.3008C70.4141 10.418 70.3438 10.5938 70.2734 10.8281C70.2266 11.0156 70.168 11.2852 70.0977 11.6367C70.0273 11.9648 69.9688 12.3984 69.9219 12.9375C71.1875 12.1406 72.3477 11.543 73.4023 11.1445C74.4805 10.7461 75.418 10.4648 76.2148 10.3008C77.1523 10.1133 77.9961 10.043 78.7461 10.0898C79.6836 10.1602 80.5508 10.3711 81.3477 10.7227C82.168 11.0508 82.9062 11.4492 83.5625 11.918C84.2188 12.3867 84.793 12.9023 85.2852 13.4648C85.7773 14.0273 86.1641 14.5898 86.4453 15.1523C86.6328 15.5273 86.75 16.0664 86.7969 16.7695C86.8672 17.4727 86.7969 18.2227 86.5859 19.0195C86.375 19.8164 86 20.6016 85.4609 21.375C84.9453 22.125 84.207 22.7227 83.2461 23.168C81.582 23.918 79.9297 24.3398 78.2891 24.4336C77.5859 24.4805 76.8594 24.457 76.1094 24.3633C75.3828 24.2695 74.6445 24.0703 73.8945 23.7656C73.168 23.4609 72.4648 23.0273 71.7852 22.4648C71.1055 21.8789 70.4844 21.1289 69.9219 20.2148C69.7344 21.4102 69.5938 22.4531 69.5 23.3438C69.4297 24.2109 69.3828 24.9375 69.3594 25.5234C69.3359 26.2031 69.3359 26.7773 69.3594 27.2461C69.4062 27.7148 69.5 28.2188 69.6406 28.7578C69.7578 29.2266 69.9219 29.7656 70.1328 30.375C70.3672 31.0078 70.6602 31.6641 71.0117 32.3438C70.8711 32.2969 70.6719 32.2617 70.4141 32.2383C70.1797 32.2383 69.9336 32.2617 69.6758 32.3086C69.3945 32.3555 69.0781 32.4023 68.7266 32.4492C68.3984 32.5195 68.0352 32.6016 67.6367 32.6953C67.3086 32.7656 66.9219 32.8477 66.4766 32.9414C66.0547 33.0586 65.6211 33.1875 65.1758 33.3281C65.4336 33.0234 65.6328 32.6719 65.7734 32.2734C65.9375 31.8984 66.0664 31.5469 66.1602 31.2188C66.2539 30.8203 66.3359 30.4219 66.4062 30.0234C66.4297 29.6719 66.4648 29.0039 66.5117 28.0195C66.582 27.0586 66.6406 25.9453 66.6875 24.6797C66.7344 23.3906 66.7695 22.043 66.793 20.6367C66.8398 19.2305 66.8633 17.9297 66.8633 16.7344C66.8867 15.5156 66.8867 14.4844 66.8633 13.6406C66.8398 12.7969 66.793 12.3047 66.7227 12.1641C66.6289 12 66.4531 11.8242 66.1953 11.6367C65.9844 11.4727 65.6797 11.3086 65.2812 11.1445C64.9062 10.9805 64.4023 10.8047 63.7695 10.6172ZM72.1367 17.0156C71.9727 17.5547 71.9375 18.082 72.0312 18.5977C72.125 19.1133 72.3594 19.5938 72.7344 20.0391C73.1328 20.4844 73.6836 20.8828 74.3867 21.2344C75.1133 21.5625 76.0156 21.8086 77.0938 21.9727C78.1719 22.1367 78.9922 22.1133 79.5547 21.9023C80.1172 21.6914 80.5273 21.3633 80.7852 20.918C81.0664 20.4492 81.2539 19.9102 81.3477 19.3008C81.4414 18.668 81.5586 18.0117 81.6992 17.332C81.8398 16.6758 81.8164 16.0078 81.6289 15.3281C81.4414 14.625 81.1719 13.9922 80.8203 13.4297C80.4922 12.8672 80.1172 12.4102 79.6953 12.0586C79.2969 11.6836 78.9453 11.4961 78.6406 11.4961C77.9141 11.4961 77.1992 11.6836 76.4961 12.0586C75.793 12.4336 75.1484 12.9023 74.5625 13.4648C73.9766 14.0273 73.4609 14.6367 73.0156 15.293C72.5938 15.9258 72.3008 16.5 72.1367 17.0156ZM89.0469 27.9844C89.2812 27.6328 89.4688 27.3047 89.6094 27C89.75 26.6953 89.8672 26.4375 89.9609 26.2266C90.0547 25.9688 90.125 25.7344 90.1719 25.5234C90.1953 25.3828 90.207 24.9727 90.207 24.293C90.207 23.6133 90.1836 22.7578 90.1367 21.7266C90.1133 20.6953 90.0781 19.5352 90.0312 18.2461C90.0078 16.957 89.9609 15.6445 89.8906 14.3086C89.8438 12.9727 89.7852 11.6719 89.7148 10.4062C89.668 9.14062 89.6211 8.00391 89.5742 6.99609C89.5273 5.96484 89.4805 5.12109 89.4336 4.46484C89.3867 3.80859 89.3516 3.43359 89.3281 3.33984C89.2812 3.19922 89.1992 3.05859 89.082 2.91797C88.8477 2.63672 88.4492 2.36719 87.8867 2.10938C89.082 1.80469 89.9961 1.55859 90.6289 1.37109C91.0039 1.27734 91.332 1.18359 91.6133 1.08984C91.8711 0.996094 92.1289 0.902344 92.3867 0.808594C92.5977 0.714844 92.832 0.609375 93.0898 0.492188C93.3477 0.351562 93.582 0.199219 93.793 0.0351562C93.6758 0.714844 93.582 1.37109 93.5117 2.00391C93.4414 2.63672 93.3828 3.22266 93.3359 3.76172C93.2891 4.37109 93.2656 4.95703 93.2656 5.51953C93.1484 6.66797 93.0781 7.92188 93.0547 9.28125C93.0547 10.6172 93.0664 11.9766 93.0898 13.3594C93.1133 14.7422 93.1602 16.0898 93.2305 17.4023C93.3008 18.7148 93.3711 19.9102 93.4414 20.9883C93.5352 22.043 93.6172 22.9453 93.6875 23.6953C93.7812 24.4219 93.8516 24.8906 93.8984 25.1016C93.9922 25.4531 94.0859 25.793 94.1797 26.1211C94.2734 26.4023 94.3789 26.6953 94.4961 27C94.6133 27.3281 94.7539 27.5859 94.918 27.7734H91.5078C91.2031 27.7734 90.9102 27.7852 90.6289 27.8086C90.3711 27.832 90.1016 27.8555 89.8203 27.8789C89.5391 27.9023 89.2812 27.9375 89.0469 27.9844ZM94.3906 9.03516C94.8594 9.10547 95.2812 9.16406 95.6562 9.21094C96.0078 9.23438 96.3242 9.25781 96.6055 9.28125C96.9102 9.30469 97.2031 9.31641 97.4844 9.31641C97.7422 9.31641 98.0703 9.30469 98.4688 9.28125C98.7969 9.25781 99.2188 9.23438 99.7344 9.21094C100.273 9.16406 100.906 9.10547 101.633 9.03516C101.586 9.12891 101.492 9.42188 101.352 9.91406C101.211 10.3828 101.07 10.9688 100.93 11.6719C100.789 12.3516 100.66 13.1133 100.543 13.957C100.449 14.7773 100.402 15.5977 100.402 16.418C100.426 17.2148 100.531 17.9766 100.719 18.7031C100.906 19.4062 101.211 19.9805 101.633 20.4258C102.523 21.3398 103.309 21.8906 103.988 22.0781C104.691 22.2656 105.301 22.2422 105.816 22.0078C106.332 21.7734 106.754 21.4219 107.082 20.9531C107.41 20.4844 107.645 20.0508 107.785 19.6523C108.137 18.5742 108.348 17.4375 108.418 16.2422C108.465 15.2109 108.383 14.0625 108.172 12.7969C107.961 11.5312 107.457 10.2422 106.66 8.92969C107.27 8.97656 107.797 9.01172 108.242 9.03516C108.688 9.05859 109.074 9.08203 109.402 9.10547C109.777 9.12891 110.105 9.15234 110.387 9.17578C110.645 9.19922 110.949 9.19922 111.301 9.17578C111.605 9.17578 111.969 9.16406 112.391 9.14062C112.836 9.09375 113.328 9.04688 113.867 9C113.961 11.2969 114.043 13.3477 114.113 15.1523C114.184 16.9336 114.23 18.5156 114.254 19.8984C114.301 21.2578 114.324 22.4414 114.324 23.4492C114.324 24.4336 114.324 25.2656 114.324 25.9453C114.301 27.5625 114.23 28.6289 114.113 29.1445C113.926 29.8711 113.586 30.5977 113.094 31.3242C112.625 32.0508 112.027 32.6953 111.301 33.2578C110.574 33.8438 109.73 34.2891 108.77 34.5938C107.832 34.9219 106.801 35.0391 105.676 34.9453C104.574 34.8516 103.695 34.6992 103.039 34.4883C102.406 34.3008 101.902 34.0781 101.527 33.8203C101.176 33.5625 100.918 33.293 100.754 33.0117C100.613 32.7305 100.508 32.4375 100.438 32.1328C100.367 31.8516 100.297 31.582 100.227 31.3242C100.156 31.0664 100.016 30.8438 99.8047 30.6562C99.5469 30.4453 99.2773 30.2344 98.9961 30.0234C98.7383 29.8359 98.457 29.6484 98.1523 29.4609C97.8711 29.2734 97.5898 29.1211 97.3086 29.0039L104.797 28.582C104.586 28.8633 104.434 29.1211 104.34 29.3555C104.246 29.5898 104.188 29.7891 104.164 29.9531C104.141 30.1641 104.152 30.3398 104.199 30.4805C104.293 30.7617 104.457 31.0664 104.691 31.3945C104.949 31.7461 105.277 32.0156 105.676 32.2031C106.074 32.4141 106.543 32.4844 107.082 32.4141C107.645 32.3438 108.277 32.0508 108.98 31.5352C109.566 31.0898 110.059 30.375 110.457 29.3906C110.785 28.5469 111.043 27.3633 111.23 25.8398C111.418 24.3164 111.383 22.3125 111.125 19.8281C110.703 21.2812 110.129 22.3945 109.402 23.168C108.676 23.9414 107.949 24.5039 107.223 24.8555C106.379 25.2773 105.5 25.5 104.586 25.5234C103.367 25.4766 102.324 25.3242 101.457 25.0664C100.59 24.7852 99.875 24.4102 99.3125 23.9414C98.75 23.4727 98.3047 22.9219 97.9766 22.2891C97.6719 21.6328 97.4492 20.9062 97.3086 20.1094C97.168 19.3125 97.0977 18.5156 97.0977 17.7188C97.0977 16.8984 97.0977 16.1367 97.0977 15.4336C97.1211 14.7305 97.1328 14.0977 97.1328 13.5352C97.1328 12.9492 97.0742 12.4805 96.957 12.1289C96.8164 11.7773 96.6289 11.4258 96.3945 11.0742C96.207 10.7695 95.9492 10.4414 95.6211 10.0898C95.2695 9.71484 94.8594 9.36328 94.3906 9.03516Z" fill="black"/>
<path d="M126.418 1.33594C127.168 1.45313 127.848 1.55859 128.457 1.65234C129.066 1.72266 129.594 1.78125 130.039 1.82812C130.555 1.89844 131.012 1.95703 131.41 2.00391C131.902 2.07422 132.641 1.99219 133.625 1.75781C134.609 1.5 135.688 1.26562 136.859 1.05469C138.055 0.820313 139.273 0.691406 140.516 0.667969C141.758 0.621094 142.895 0.84375 143.926 1.33594C144.957 1.82812 145.801 2.32031 146.457 2.8125C147.113 3.30469 147.629 3.83203 148.004 4.39453C148.402 4.93359 148.684 5.50781 148.848 6.11719C149.012 6.72656 149.105 7.39453 149.129 8.12109C149.105 9.19922 148.848 10.2422 148.355 11.25C148.145 11.6719 147.863 12.1172 147.512 12.5859C147.184 13.0312 146.773 13.4648 146.281 13.8867C145.789 14.3086 145.203 14.707 144.523 15.082C143.867 15.457 143.094 15.7852 142.203 16.0664C143.07 16.3242 143.785 16.6289 144.348 16.9805C144.934 17.332 145.402 17.6602 145.754 17.9648C146.176 18.3398 146.492 18.7031 146.703 19.0547C146.961 19.5469 147.137 19.9688 147.23 20.3203C147.324 20.6719 147.383 21.0117 147.406 21.3398C147.453 21.6445 147.512 21.9609 147.582 22.2891C147.652 22.6172 147.805 22.9922 148.039 23.4141C148.227 23.7422 148.449 24.082 148.707 24.4336C148.941 24.7383 149.211 25.0664 149.516 25.418C149.844 25.7695 150.242 26.1094 150.711 26.4375C150.055 26.4609 149.445 26.4727 148.883 26.4727C148.344 26.4727 147.875 26.4727 147.477 26.4727C147.008 26.4727 146.562 26.4609 146.141 26.4375C145.719 26.4141 145.191 26.4023 144.559 26.4023C144.02 26.4023 143.328 26.4023 142.484 26.4023C141.664 26.4023 140.668 26.4141 139.496 26.4375C140.012 26.0391 140.434 25.6406 140.762 25.2422C141.09 24.8438 141.348 24.4805 141.535 24.1523C141.746 23.7773 141.898 23.4141 141.992 23.0625C142.109 22.4297 142.121 21.7734 142.027 21.0938C141.957 20.5078 141.77 19.8633 141.465 19.1602C141.16 18.4336 140.668 17.707 139.988 16.9805C139.309 17.0977 138.734 17.1914 138.266 17.2617C137.82 17.3086 137.434 17.3555 137.105 17.4023C136.73 17.4492 136.426 17.4844 136.191 17.5078C135.98 17.5312 135.746 17.5547 135.488 17.5781C135.277 17.6016 135.043 17.6367 134.785 17.6836C134.551 17.707 134.328 17.7422 134.117 17.7891C134.07 18.7969 134.07 19.6758 134.117 20.4258C134.164 21.1523 134.223 21.7617 134.293 22.2539C134.387 22.8398 134.492 23.3438 134.609 23.7656C134.727 24.1875 134.891 24.5977 135.102 24.9961C135.266 25.3242 135.477 25.6758 135.734 26.0508C135.992 26.4023 136.285 26.6953 136.613 26.9297C136.004 26.9297 135.418 26.9297 134.855 26.9297C134.316 26.9297 133.824 26.918 133.379 26.8945C132.863 26.8945 132.371 26.8828 131.902 26.8594C131.434 26.8359 130.906 26.8242 130.32 26.8242C129.828 26.8242 129.242 26.8242 128.562 26.8242C127.906 26.8242 127.191 26.8359 126.418 26.8594C127.027 26.2266 127.508 25.6875 127.859 25.2422C128.211 24.7969 128.48 24.4219 128.668 24.1172C128.879 23.7891 129.008 23.5078 129.055 23.2734C129.102 22.8984 129.137 22.2305 129.16 21.2695C129.207 20.2852 129.242 19.1602 129.266 17.8945C129.289 16.6289 129.301 15.3047 129.301 13.9219C129.301 12.5391 129.289 11.25 129.266 10.0547C129.242 8.83594 129.219 7.79297 129.195 6.92578C129.172 6.05859 129.148 5.50781 129.125 5.27344C129.055 4.85156 128.902 4.42969 128.668 4.00781C128.48 3.63281 128.211 3.21094 127.859 2.74219C127.508 2.27344 127.027 1.80469 126.418 1.33594ZM139.707 13.7109C139.941 13.5703 140.141 13.4297 140.305 13.2891C140.469 13.1484 140.609 12.9258 140.727 12.6211C140.844 12.293 140.938 11.8359 141.008 11.25C141.102 10.6641 141.207 9.86719 141.324 8.85938C141.418 7.85156 141.348 7.01953 141.113 6.36328C140.902 5.70703 140.609 5.19141 140.234 4.81641C139.883 4.41797 139.484 4.14844 139.039 4.00781C138.617 3.84375 138.242 3.76172 137.914 3.76172C137.258 3.76172 136.613 3.96094 135.98 4.35938C135.348 4.75781 134.867 5.29687 134.539 5.97656C134.422 6.28125 134.316 6.78516 134.223 7.48828C134.152 8.09766 134.105 8.94141 134.082 10.0195C134.059 11.0977 134.094 12.5156 134.188 14.2734C135.078 14.4141 135.863 14.4727 136.543 14.4492C137.223 14.4023 137.797 14.3203 138.266 14.2031C138.828 14.0859 139.309 13.9219 139.707 13.7109ZM158.973 21.3398C159.629 21.3398 160.238 21.2695 160.801 21.1289C161.27 21.0117 161.715 20.8242 162.137 20.5664C162.582 20.2852 162.875 19.875 163.016 19.3359C163.484 19.4297 163.883 19.5117 164.211 19.582C164.539 19.6289 164.82 19.6758 165.055 19.7227C165.312 19.793 165.535 19.8398 165.723 19.8633C165.91 19.9102 166.133 19.957 166.391 20.0039C166.625 20.0508 166.906 20.1094 167.234 20.1797C167.586 20.2266 167.996 20.2969 168.465 20.3906C168.113 20.3438 167.75 20.3789 167.375 20.4961C167.023 20.6133 166.684 20.7422 166.355 20.8828C165.98 21.0469 165.629 21.2461 165.301 21.4805C165.09 21.6211 164.844 21.832 164.562 22.1133C164.305 22.3945 163.93 22.6641 163.438 22.9219C162.945 23.1797 162.289 23.4023 161.469 23.5898C160.672 23.7539 159.641 23.8125 158.375 23.7656C156.852 23.7188 155.574 23.4492 154.543 22.957C153.512 22.4414 152.68 21.8203 152.047 21.0938C151.414 20.3438 150.957 19.5352 150.676 18.668C150.395 17.8008 150.242 16.9922 150.219 16.2422C150.195 15.4922 150.418 14.707 150.887 13.8867C151.355 13.0664 152.012 12.3164 152.855 11.6367C153.723 10.957 154.766 10.4062 155.984 9.98438C157.203 9.53906 158.539 9.31641 159.992 9.31641C160.836 9.31641 161.609 9.42188 162.312 9.63281C163.039 9.82031 163.695 10.0781 164.281 10.4062C164.891 10.7344 165.418 11.1094 165.863 11.5312C166.309 11.9297 166.684 12.3398 166.988 12.7617C167.293 13.207 167.551 13.6758 167.762 14.168C167.949 14.5898 168.102 15.0703 168.219 15.6094C168.336 16.1484 168.371 16.6992 168.324 17.2617C166.543 17.3086 165.102 17.3438 164 17.3672C162.922 17.3906 162.078 17.4023 161.469 17.4023H159.887H158.691C158.27 17.4023 157.719 17.4141 157.039 17.4375C156.359 17.4609 155.527 17.4961 154.543 17.543C154.66 18.4805 154.953 19.207 155.422 19.7227C155.914 20.2148 156.43 20.5898 156.969 20.8477C157.578 21.1289 158.246 21.293 158.973 21.3398ZM155.809 15.0117C156.559 15.0586 157.18 15.0938 157.672 15.1172C158.188 15.1406 158.609 15.1641 158.938 15.1875C159.289 15.2109 159.57 15.2227 159.781 15.2227H160.66C161.246 15.2227 162.336 15.1875 163.93 15.1172C163.859 14.0859 163.637 13.3008 163.262 12.7617C162.91 12.2227 162.535 11.8242 162.137 11.5664C161.668 11.2852 161.152 11.1211 160.59 11.0742C159.066 11.0977 157.93 11.4141 157.18 12.0234C156.453 12.6328 155.996 13.6289 155.809 15.0117ZM189.383 14.5195C189.102 14.4727 188.75 14.4375 188.328 14.4141C187.93 14.3906 187.543 14.3789 187.168 14.3789C186.746 14.3789 186.301 14.3906 185.832 14.4141C185.34 14.4375 184.848 14.4609 184.355 14.4844C183.934 14.5078 183.453 14.543 182.914 14.5898C182.398 14.6133 181.895 14.6484 181.402 14.6953C181.59 14.6016 181.754 14.4727 181.895 14.3086C182.059 14.1445 182.199 13.9805 182.316 13.8164C182.434 13.6289 182.539 13.4297 182.633 13.2188C182.75 12.8672 182.738 12.4453 182.598 11.9531C182.457 11.4375 182.199 10.9688 181.824 10.5469C181.473 10.125 181.016 9.79688 180.453 9.5625C179.914 9.30469 179.316 9.24609 178.66 9.38672C177.957 9.55078 177.324 9.79688 176.762 10.125C176.223 10.4531 175.766 10.9102 175.391 11.4961C175.039 12.0586 174.781 12.7617 174.617 13.6055C174.477 14.4258 174.441 15.4102 174.512 16.5586C174.605 17.9883 174.84 19.125 175.215 19.9688C175.59 20.8125 176.047 21.4453 176.586 21.8672C177.125 22.2891 177.711 22.5469 178.344 22.6406C179 22.7109 179.645 22.7109 180.277 22.6406C180.723 22.5469 181.133 22.3477 181.508 22.043C181.812 21.7852 182.094 21.4102 182.352 20.918C182.609 20.4258 182.727 19.7461 182.703 18.8789L186.992 18.7031C186.5 20.0859 185.902 21.1875 185.199 22.0078C184.496 22.8047 183.816 23.4258 183.16 23.8711C182.387 24.3867 181.613 24.7383 180.84 24.9258C179.879 25.0898 179.023 25.1602 178.273 25.1367C177.523 25.0898 176.844 24.9727 176.234 24.7852C175.625 24.5977 175.062 24.3633 174.547 24.082C174.031 23.8008 173.539 23.4961 173.07 23.168C172.766 22.957 172.426 22.6055 172.051 22.1133C171.676 21.6211 171.324 21.0352 170.996 20.3555C170.668 19.6523 170.398 18.8789 170.188 18.0352C169.977 17.1914 169.895 16.3242 169.941 15.4336C169.988 14.5195 170.199 13.6055 170.574 12.6914C170.949 11.7773 171.547 10.8984 172.367 10.0547C173.609 8.78906 174.934 7.96875 176.34 7.59375C177.77 7.19531 179.117 7.08984 180.383 7.27734C181.648 7.44141 182.773 7.80469 183.758 8.36719C184.742 8.92969 185.434 9.53906 185.832 10.1953C186.23 10.8516 186.523 11.3555 186.711 11.707C186.922 12.0352 187.074 12.293 187.168 12.4805C187.285 12.6445 187.379 12.7734 187.449 12.8672C187.543 12.9375 187.672 13.043 187.836 13.1836C187.953 13.3008 188.094 13.4297 188.258 13.5703C188.398 13.6875 188.562 13.8281 188.75 13.9922C188.938 14.1562 189.148 14.332 189.383 14.5195ZM197.996 21.3398C198.652 21.3398 199.262 21.2695 199.824 21.1289C200.293 21.0117 200.738 20.8242 201.16 20.5664C201.605 20.2852 201.898 19.875 202.039 19.3359C202.508 19.4297 202.906 19.5117 203.234 19.582C203.562 19.6289 203.844 19.6758 204.078 19.7227C204.336 19.793 204.559 19.8398 204.746 19.8633C204.934 19.9102 205.156 19.957 205.414 20.0039C205.648 20.0508 205.93 20.1094 206.258 20.1797C206.609 20.2266 207.02 20.2969 207.488 20.3906C207.137 20.3438 206.773 20.3789 206.398 20.4961C206.047 20.6133 205.707 20.7422 205.379 20.8828C205.004 21.0469 204.652 21.2461 204.324 21.4805C204.113 21.6211 203.867 21.832 203.586 22.1133C203.328 22.3945 202.953 22.6641 202.461 22.9219C201.969 23.1797 201.312 23.4023 200.492 23.5898C199.695 23.7539 198.664 23.8125 197.398 23.7656C195.875 23.7188 194.598 23.4492 193.566 22.957C192.535 22.4414 191.703 21.8203 191.07 21.0938C190.438 20.3438 189.98 19.5352 189.699 18.668C189.418 17.8008 189.266 16.9922 189.242 16.2422C189.219 15.4922 189.441 14.707 189.91 13.8867C190.379 13.0664 191.035 12.3164 191.879 11.6367C192.746 10.957 193.789 10.4062 195.008 9.98438C196.227 9.53906 197.562 9.31641 199.016 9.31641C199.859 9.31641 200.633 9.42188 201.336 9.63281C202.062 9.82031 202.719 10.0781 203.305 10.4062C203.914 10.7344 204.441 11.1094 204.887 11.5312C205.332 11.9297 205.707 12.3398 206.012 12.7617C206.316 13.207 206.574 13.6758 206.785 14.168C206.973 14.5898 207.125 15.0703 207.242 15.6094C207.359 16.1484 207.395 16.6992 207.348 17.2617C205.566 17.3086 204.125 17.3438 203.023 17.3672C201.945 17.3906 201.102 17.4023 200.492 17.4023H198.91H197.715C197.293 17.4023 196.742 17.4141 196.062 17.4375C195.383 17.4609 194.551 17.4961 193.566 17.543C193.684 18.4805 193.977 19.207 194.445 19.7227C194.938 20.2148 195.453 20.5898 195.992 20.8477C196.602 21.1289 197.27 21.293 197.996 21.3398ZM194.832 15.0117C195.582 15.0586 196.203 15.0938 196.695 15.1172C197.211 15.1406 197.633 15.1641 197.961 15.1875C198.312 15.2109 198.594 15.2227 198.805 15.2227H199.684C200.27 15.2227 201.359 15.1875 202.953 15.1172C202.883 14.0859 202.66 13.3008 202.285 12.7617C201.934 12.2227 201.559 11.8242 201.16 11.5664C200.691 11.2852 200.176 11.1211 199.613 11.0742C198.09 11.0977 196.953 11.4141 196.203 12.0234C195.477 12.6328 195.02 13.6289 194.832 15.0117ZM207.699 10.6172C208.449 10.5 209.059 10.4062 209.527 10.3359C210.02 10.2422 210.418 10.1719 210.723 10.125C211.074 10.0547 211.344 9.99609 211.531 9.94922C211.719 9.90234 211.988 9.83203 212.34 9.73828C212.645 9.64453 213.043 9.53906 213.535 9.42188C214.027 9.28125 214.648 9.09375 215.398 8.85938C215.211 9.09375 215.059 9.30469 214.941 9.49219C214.848 9.65625 214.754 9.79688 214.66 9.91406C214.566 10.0547 214.484 10.1836 214.414 10.3008C214.344 10.418 214.273 10.5938 214.203 10.8281C214.156 11.0156 214.098 11.2852 214.027 11.6367C213.957 11.9648 213.898 12.3984 213.852 12.9375C215.117 12.1406 216.277 11.543 217.332 11.1445C218.41 10.7461 219.348 10.4648 220.145 10.3008C221.082 10.1133 221.926 10.043 222.676 10.0898C223.613 10.1602 224.48 10.3711 225.277 10.7227C226.098 11.0508 226.836 11.4492 227.492 11.918C228.148 12.3867 228.723 12.9023 229.215 13.4648C229.707 14.0273 230.094 14.5898 230.375 15.1523C230.562 15.5273 230.68 16.0664 230.727 16.7695C230.797 17.4727 230.727 18.2227 230.516 19.0195C230.305 19.8164 229.93 20.6016 229.391 21.375C228.875 22.125 228.137 22.7227 227.176 23.168C225.512 23.918 223.859 24.3398 222.219 24.4336C221.516 24.4805 220.789 24.457 220.039 24.3633C219.312 24.2695 218.574 24.0703 217.824 23.7656C217.098 23.4609 216.395 23.0273 215.715 22.4648C215.035 21.8789 214.414 21.1289 213.852 20.2148C213.664 21.4102 213.523 22.4531 213.43 23.3438C213.359 24.2109 213.312 24.9375 213.289 25.5234C213.266 26.2031 213.266 26.7773 213.289 27.2461C213.336 27.7148 213.43 28.2188 213.57 28.7578C213.688 29.2266 213.852 29.7656 214.062 30.375C214.297 31.0078 214.59 31.6641 214.941 32.3438C214.801 32.2969 214.602 32.2617 214.344 32.2383C214.109 32.2383 213.863 32.2617 213.605 32.3086C213.324 32.3555 213.008 32.4023 212.656 32.4492C212.328 32.5195 211.965 32.6016 211.566 32.6953C211.238 32.7656 210.852 32.8477 210.406 32.9414C209.984 33.0586 209.551 33.1875 209.105 33.3281C209.363 33.0234 209.562 32.6719 209.703 32.2734C209.867 31.8984 209.996 31.5469 210.09 31.2188C210.184 30.8203 210.266 30.4219 210.336 30.0234C210.359 29.6719 210.395 29.0039 210.441 28.0195C210.512 27.0586 210.57 25.9453 210.617 24.6797C210.664 23.3906 210.699 22.043 210.723 20.6367C210.77 19.2305 210.793 17.9297 210.793 16.7344C210.816 15.5156 210.816 14.4844 210.793 13.6406C210.77 12.7969 210.723 12.3047 210.652 12.1641C210.559 12 210.383 11.8242 210.125 11.6367C209.914 11.4727 209.609 11.3086 209.211 11.1445C208.836 10.9805 208.332 10.8047 207.699 10.6172ZM216.066 17.0156C215.902 17.5547 215.867 18.082 215.961 18.5977C216.055 19.1133 216.289 19.5938 216.664 20.0391C217.062 20.4844 217.613 20.8828 218.316 21.2344C219.043 21.5625 219.945 21.8086 221.023 21.9727C222.102 22.1367 222.922 22.1133 223.484 21.9023C224.047 21.6914 224.457 21.3633 224.715 20.918C224.996 20.4492 225.184 19.9102 225.277 19.3008C225.371 18.668 225.488 18.0117 225.629 17.332C225.77 16.6758 225.746 16.0078 225.559 15.3281C225.371 14.625 225.102 13.9922 224.75 13.4297C224.422 12.8672 224.047 12.4102 223.625 12.0586C223.227 11.6836 222.875 11.4961 222.57 11.4961C221.844 11.4961 221.129 11.6836 220.426 12.0586C219.723 12.4336 219.078 12.9023 218.492 13.4648C217.906 14.0273 217.391 14.6367 216.945 15.293C216.523 15.9258 216.23 16.5 216.066 17.0156ZM232.168 11.2852L238.637 11.3555C238.262 12.7852 237.98 14.0039 237.793 15.0117C237.629 16.0195 237.523 16.8633 237.477 17.543C237.383 18.3164 237.359 18.9727 237.406 19.5117C237.477 20.0039 237.594 20.5312 237.758 21.0938C237.898 21.5625 238.109 22.1016 238.391 22.7109C238.672 23.3203 239.047 23.9297 239.516 24.5391C239.234 24.4453 238.93 24.375 238.602 24.3281C238.273 24.2812 237.969 24.2461 237.688 24.2227C237.359 24.1992 237.031 24.1992 236.703 24.2227C236.375 24.2461 236.012 24.2812 235.613 24.3281C235.285 24.375 234.887 24.4336 234.418 24.5039C233.949 24.5742 233.457 24.668 232.941 24.7852C233.293 23.7305 233.562 22.8164 233.75 22.043C233.961 21.2695 234.113 20.625 234.207 20.1094C234.301 19.5 234.359 19.0078 234.383 18.6328C234.383 18.1641 234.383 17.6367 234.383 17.0508C234.383 16.4414 234.383 15.8555 234.383 15.293C234.383 14.7305 234.371 14.2383 234.348 13.8164C234.324 13.3711 234.277 13.0898 234.207 12.9727L233.855 12.6211C233.715 12.5039 233.504 12.3398 233.223 12.1289C232.965 11.8945 232.613 11.6133 232.168 11.2852ZM234.664 5.87109C235.156 5.61328 235.648 5.54297 236.141 5.66016C236.656 5.77734 237.055 6 237.336 6.32812C237.617 6.65625 237.711 7.04297 237.617 7.48828C237.547 7.93359 237.172 8.36719 236.492 8.78906C235.812 9.1875 235.215 9.32812 234.699 9.21094C234.184 9.09375 233.82 8.84766 233.609 8.47266C233.398 8.09766 233.363 7.66406 233.504 7.17188C233.645 6.65625 234.031 6.22266 234.664 5.87109ZM249.922 21.3398C250.578 21.3398 251.188 21.2695 251.75 21.1289C252.219 21.0117 252.664 20.8242 253.086 20.5664C253.531 20.2852 253.824 19.875 253.965 19.3359C254.434 19.4297 254.832 19.5117 255.16 19.582C255.488 19.6289 255.77 19.6758 256.004 19.7227C256.262 19.793 256.484 19.8398 256.672 19.8633C256.859 19.9102 257.082 19.957 257.34 20.0039C257.574 20.0508 257.855 20.1094 258.184 20.1797C258.535 20.2266 258.945 20.2969 259.414 20.3906C259.062 20.3438 258.699 20.3789 258.324 20.4961C257.973 20.6133 257.633 20.7422 257.305 20.8828C256.93 21.0469 256.578 21.2461 256.25 21.4805C256.039 21.6211 255.793 21.832 255.512 22.1133C255.254 22.3945 254.879 22.6641 254.387 22.9219C253.895 23.1797 253.238 23.4023 252.418 23.5898C251.621 23.7539 250.59 23.8125 249.324 23.7656C247.801 23.7188 246.523 23.4492 245.492 22.957C244.461 22.4414 243.629 21.8203 242.996 21.0938C242.363 20.3438 241.906 19.5352 241.625 18.668C241.344 17.8008 241.191 16.9922 241.168 16.2422C241.145 15.4922 241.367 14.707 241.836 13.8867C242.305 13.0664 242.961 12.3164 243.805 11.6367C244.672 10.957 245.715 10.4062 246.934 9.98438C248.152 9.53906 249.488 9.31641 250.941 9.31641C251.785 9.31641 252.559 9.42188 253.262 9.63281C253.988 9.82031 254.645 10.0781 255.23 10.4062C255.84 10.7344 256.367 11.1094 256.812 11.5312C257.258 11.9297 257.633 12.3398 257.938 12.7617C258.242 13.207 258.5 13.6758 258.711 14.168C258.898 14.5898 259.051 15.0703 259.168 15.6094C259.285 16.1484 259.32 16.6992 259.273 17.2617C257.492 17.3086 256.051 17.3438 254.949 17.3672C253.871 17.3906 253.027 17.4023 252.418 17.4023H250.836H249.641C249.219 17.4023 248.668 17.4141 247.988 17.4375C247.309 17.4609 246.477 17.4961 245.492 17.543C245.609 18.4805 245.902 19.207 246.371 19.7227C246.863 20.2148 247.379 20.5898 247.918 20.8477C248.527 21.1289 249.195 21.293 249.922 21.3398ZM246.758 15.0117C247.508 15.0586 248.129 15.0938 248.621 15.1172C249.137 15.1406 249.559 15.1641 249.887 15.1875C250.238 15.2109 250.52 15.2227 250.73 15.2227H251.609C252.195 15.2227 253.285 15.1875 254.879 15.1172C254.809 14.0859 254.586 13.3008 254.211 12.7617C253.859 12.2227 253.484 11.8242 253.086 11.5664C252.617 11.2852 252.102 11.1211 251.539 11.0742C250.016 11.0977 248.879 11.4141 248.129 12.0234C247.402 12.6328 246.945 13.6289 246.758 15.0117ZM276.184 6.92578C275.973 7.44141 275.785 7.91016 275.621 8.33203C275.48 8.75391 275.352 9.12891 275.234 9.45703C275.117 9.83203 275.012 10.1602 274.918 10.4414C274.824 10.7695 274.719 11.1445 274.602 11.5664C274.484 11.9414 274.332 12.4102 274.145 12.9727C273.98 13.5117 273.781 14.1562 273.547 14.9062C273.359 13.7812 273.02 12.8906 272.527 12.2344C272.035 11.5547 271.531 11.0273 271.016 10.6523C270.406 10.2305 269.75 9.92578 269.047 9.73828C267.781 9.52734 266.867 9.55078 266.305 9.80859C265.742 10.0664 265.367 10.3945 265.18 10.793C265.086 10.957 264.98 11.168 264.863 11.4258C264.77 11.6602 264.688 11.9062 264.617 12.1641C264.57 12.4219 264.559 12.6797 264.582 12.9375C264.605 13.1953 264.711 13.4062 264.898 13.5703C265.016 13.6875 265.32 13.8516 265.812 14.0625C266.305 14.25 266.891 14.4727 267.57 14.7305C268.273 14.9648 269.012 15.2227 269.785 15.5039C270.582 15.7852 271.332 16.0664 272.035 16.3477C272.738 16.6289 273.348 16.9102 273.863 17.1914C274.379 17.4727 274.719 17.7305 274.883 17.9648C275.023 18.1992 275.176 18.5156 275.34 18.9141C275.527 19.2891 275.656 19.7109 275.727 20.1797C275.82 20.625 275.844 21.0938 275.797 21.5859C275.773 22.0547 275.645 22.5234 275.41 22.9922C275.176 23.4609 274.801 23.8945 274.285 24.293C273.793 24.6914 273.125 25.0195 272.281 25.2773C271.297 25.582 270.348 25.6641 269.434 25.5234C268.52 25.3828 267.676 25.1719 266.902 24.8906C266.152 24.6094 265.496 24.3398 264.934 24.082C264.371 23.8008 263.973 23.6836 263.738 23.7305C263.48 23.7773 263.188 23.9062 262.859 24.1172C262.531 24.3281 262.215 24.5508 261.91 24.7852C261.629 24.9961 261.383 25.1953 261.172 25.3828C260.961 25.5469 260.855 25.6055 260.855 25.5586C260.855 25.5117 260.891 25.3711 260.961 25.1367C261.055 24.9023 261.148 24.6211 261.242 24.293C261.359 23.9414 261.465 23.5664 261.559 23.168C261.676 22.7461 261.758 22.3477 261.805 21.9727C261.852 21.668 261.91 21.293 261.98 20.8477C262.027 20.4492 262.086 19.9688 262.156 19.4062C262.25 18.8203 262.355 18.1172 262.473 17.2969C262.59 17.9062 262.754 18.4336 262.965 18.8789C263.199 19.3242 263.422 19.7109 263.633 20.0391C263.891 20.4141 264.137 20.7305 264.371 20.9883C264.723 21.3164 265.133 21.6211 265.602 21.9023C266.094 22.1836 266.586 22.4297 267.078 22.6406C267.57 22.8281 268.039 22.9453 268.484 22.9922C268.93 23.0391 269.305 22.9922 269.609 22.8516C269.914 22.7109 270.172 22.4531 270.383 22.0781C270.617 21.7031 270.781 21.293 270.875 20.8477C270.969 20.4023 271.004 19.9805 270.98 19.582C270.957 19.1602 270.852 18.8203 270.664 18.5625C270.523 18.3984 270.195 18.1875 269.68 17.9297C269.188 17.6719 268.59 17.3906 267.887 17.0859C267.207 16.7812 266.48 16.4648 265.707 16.1367C264.957 15.8086 264.242 15.4805 263.562 15.1523C262.906 14.8008 262.355 14.4727 261.91 14.168C261.488 13.8398 261.254 13.5469 261.207 13.2891C261.16 12.9141 261.125 12.5039 261.102 12.0586C261.078 11.5898 261.102 11.1328 261.172 10.6875C261.266 10.2188 261.43 9.77344 261.664 9.35156C261.922 8.92969 262.297 8.57812 262.789 8.29688C263.117 8.10938 263.551 7.96875 264.09 7.875C264.629 7.78125 265.227 7.73438 265.883 7.73438C266.539 7.71094 267.219 7.73438 267.922 7.80469C268.625 7.85156 269.293 7.92188 269.926 8.01562C270.582 8.08594 271.168 8.17969 271.684 8.29688C272.223 8.41406 272.633 8.51953 272.914 8.61328C273.242 8.73047 273.594 8.74219 273.969 8.64844C274.297 8.57812 274.648 8.42578 275.023 8.19141C275.398 7.95703 275.785 7.53516 276.184 6.92578Z" fill="#2521DB"/>
</svg>
